<?xml version="1.0" encoding="UTF-8"?>
<svg version="1.1" xmlns="http://www.w3.org/2000/svg" width="125" height="125">
<path d="M0 0 C0.66 0 1.32 0 2 0 C1.99032196 0.7383609 1.98064392 1.4767218 1.97067261 2.23745728 C1.8881604 9.21131434 1.85383797 16.18394295 1.87302971 23.15821266 C1.88121304 26.7438008 1.87106259 30.32734652 1.81835938 33.91259766 C1.7681332 37.37596584 1.76692136 40.83626726 1.79904556 44.29981613 C1.80459797 46.25749598 1.75998931 48.21511097 1.71456909 50.17227173 C1.77149579 53.7204446 1.9106382 56.62055601 3 60 C5.37684095 62.24354527 7.55159677 63.50958731 10.52493286 64.84603882 C16.77232715 67.75878829 19.674275 73.79585158 22.23828125 79.88671875 C25.32234312 88.44301347 24.47307272 96.66462548 21 105 C16.76872432 113.17255738 10.33791211 119.60208319 1.45703125 122.52734375 C-7.89909711 124.3271713 -17.75314647 124.08039953 -26 119 C-30.26507126 115.7388609 -34.01322743 112.48015886 -37 108 C-39.90503971 107.6988725 -42.60794546 107.58308796 -45.515625 107.59375 C-46.36421082 107.58291382 -47.21279663 107.57207764 -48.08709717 107.56091309 C-50.80814159 107.52656041 -53.52876701 107.51104825 -56.25 107.5 C-59.81810992 107.48540001 -63.38528811 107.45160564 -66.953125 107.40625 C-68.17687836 107.41078186 -68.17687836 107.41078186 -69.425354 107.41540527 C-74.33621065 107.35124448 -77.7624227 106.75175756 -82 104 C-84.42669283 100.35996076 -84.26911387 97.7027485 -84.22705078 93.49926758 C-84.22734283 92.73805099 -84.22763489 91.97683441 -84.22793579 91.19255066 C-84.22654243 88.67642824 -84.21098107 86.16060194 -84.1953125 83.64453125 C-84.19158239 81.90004132 -84.18873541 80.15554929 -84.18673706 78.41105652 C-84.17910045 73.81936866 -84.15945171 69.22780731 -84.1373291 64.63616943 C-84.11687129 59.95082307 -84.10773548 55.26545627 -84.09765625 50.58007812 C-84.07620585 41.38666317 -84.04206955 32.1933421 -84 23 C-80.18508912 26.76153458 -77.25957336 30.70937924 -74.25 35.125 C-73.74339844 35.85332031 -73.23679687 36.58164062 -72.71484375 37.33203125 C-72.23660156 38.02941406 -71.75835937 38.72679687 -71.265625 39.4453125 C-70.83024414 40.07969238 -70.39486328 40.71407227 -69.94628906 41.36767578 C-69 43 -69 43 -69 45 C-66.36 45 -63.72 45 -61 45 C-61.03480469 43.90300781 -61.06960937 42.80601563 -61.10546875 41.67578125 C-61.13361865 40.22136955 -61.16091752 38.7669412 -61.1875 37.3125 C-61.21263672 36.59126953 -61.23777344 35.87003906 -61.26367188 35.12695312 C-61.32667231 30.52792109 -60.88572296 27.62565193 -58 24 C-54.93228809 21.95485873 -54.34431952 21.75172726 -50.89575195 21.77294922 C-50.07512772 21.77310028 -49.25450348 21.77325134 -48.40901184 21.77340698 C-47.0870002 21.78889084 -47.0870002 21.78889084 -45.73828125 21.8046875 C-44.37959175 21.80893234 -44.37959175 21.80893234 -42.99345398 21.81326294 C-40.09966842 21.82446036 -37.20619206 21.84956411 -34.3125 21.875 C-32.35091593 21.88503037 -30.389327 21.89415612 -28.42773438 21.90234375 C-23.6183704 21.92439827 -18.80923763 21.95892511 -14 22 C-13.72671875 21.42926758 -13.4534375 20.85853516 -13.171875 20.27050781 C-11.09120978 16.23921894 -8.50307179 12.52822157 -6 8.75 C-5.4534375 7.90953125 -4.906875 7.0690625 -4.34375 6.203125 C-3.8178125 5.4090625 -3.291875 4.615 -2.75 3.796875 C-2.27046875 3.06823242 -1.7909375 2.33958984 -1.296875 1.58886719 C-0.86890625 1.06454102 -0.4409375 0.54021484 0 0 Z M-46 38 C-46.16677282 41.58343976 -46.16677282 41.58343976 -46 45 C-44.22882812 45.07347656 -44.22882812 45.07347656 -42.421875 45.1484375 C-40.86456063 45.22348879 -39.30727009 45.29903561 -37.75 45.375 C-36.97269531 45.4059375 -36.19539063 45.436875 -35.39453125 45.46875 C-27.79060395 45.85869499 -27.79060395 45.85869499 -25 48 C-22.34422329 52.00936613 -22.41304964 56.31877071 -22 61 C-19.03 60.34 -16.06 59.68 -13 59 C-12.94624033 55.5414612 -12.90644319 52.08375092 -12.875 48.625 C-12.85824219 47.64015625 -12.84148437 46.6553125 -12.82421875 45.640625 C-12.81777344 44.69960938 -12.81132813 43.75859375 -12.8046875 42.7890625 C-12.79421387 41.91975098 -12.78374023 41.05043945 -12.77294922 40.15478516 C-12.79404891 37.78654061 -12.79404891 37.78654061 -15 36 C-17.97867229 35.68782681 -17.97867229 35.68782681 -21.46875 35.734375 C-22.76167969 35.73179688 -24.05460937 35.72921875 -25.38671875 35.7265625 C-26.39871338 35.73284668 -26.39871338 35.73284668 -27.43115234 35.73925781 C-29.49216157 35.7499593 -31.55229919 35.73936057 -33.61328125 35.7265625 C-34.90621094 35.72914062 -36.19914062 35.73171875 -37.53125 35.734375 C-38.72298828 35.73663086 -39.91472656 35.73888672 -41.14257812 35.74121094 C-44.13135434 35.70439116 -44.13135434 35.70439116 -46 38 Z M-70 62 C-70.61791523 64.94404376 -70.61791523 64.94404376 -70.53125 68.3125 C-70.53640625 69.55257812 -70.5415625 70.79265625 -70.546875 72.0703125 C-70.53140625 73.36710937 -70.5159375 74.66390625 -70.5 76 C-70.51546875 77.29679687 -70.5309375 78.59359375 -70.546875 79.9296875 C-70.54171875 81.16976562 -70.5365625 82.40984375 -70.53125 83.6875 C-70.52673828 84.82574219 -70.52222656 85.96398437 -70.51757812 87.13671875 C-70.24769207 90.04910085 -70.24769207 90.04910085 -68.33300781 91.8762207 C-65.42204953 93.27839117 -63.36747507 93.34235931 -60.140625 93.29296875 C-59.02558594 93.28330078 -57.91054688 93.27363281 -56.76171875 93.26367188 C-55.60285156 93.23853516 -54.44398437 93.21339844 -53.25 93.1875 C-52.07566406 93.17396484 -50.90132812 93.16042969 -49.69140625 93.14648438 C-46.79380702 93.1111478 -43.89713573 93.06180979 -41 93 C-40.67 89.7 -40.34 86.4 -40 83 C-41.03640625 82.97421875 -42.0728125 82.9484375 -43.140625 82.921875 C-44.51045801 82.86558049 -45.88024805 82.80823345 -47.25 82.75 C-48.27287109 82.72873047 -48.27287109 82.72873047 -49.31640625 82.70703125 C-52.76732892 82.53951073 -54.68421175 82.25059326 -57.421875 80.078125 C-60.47335646 76.05983753 -60.320682 72.25893085 -60.5625 67.375 C-60.62727539 66.17230469 -60.62727539 66.17230469 -60.69335938 64.9453125 C-60.79951457 62.9637489 -60.90026855 60.98189729 -61 59 C-65.08640632 58.65946614 -67.08620423 59.05257175 -70 62 Z M-46 59 C-46.04125 60.27875 -46.0825 61.5575 -46.125 62.875 C-46.14820313 63.59429687 -46.17140625 64.31359375 -46.1953125 65.0546875 C-46.18331689 67.23863645 -46.18331689 67.23863645 -44 69 C-41.31160615 69.26991906 -38.70858064 69.08737357 -36 69 C-35.67847485 65.46322336 -35.5868808 63.6037896 -37.625 60.625 C-40.6037896 58.5868808 -42.46322336 58.67847485 -46 59 Z " fill="#5B9AC4" transform="translate(91,0)"/>
<path d="M0 0 C8.65181895 5.39575805 13.70379479 12.24092748 16.59765625 22.01953125 C18.45271253 31.15073061 16.13226209 39.92281144 11.3125 47.75 C6.63678016 54.28446279 0.0042473 59.46023224 -8 61 C-19.78642496 62.06909342 -28.61912386 60.84041225 -37.875 53.3125 C-45.31806294 46.22386862 -47.30106074 37.09075641 -48.4375 27.1875 C-48.14952623 19.15623152 -44.21772126 11.81273538 -38.8125 6.0625 C-28.03710128 -3.66897667 -13.45472536 -7.07032627 0 0 Z " fill="#EFF1EF" transform="translate(98,62)"/>
<path d="M0 0 C3.81491088 3.76153458 6.74042664 7.70937924 9.75 12.125 C10.25660156 12.85332031 10.76320313 13.58164062 11.28515625 14.33203125 C11.76339844 15.02941406 12.24164063 15.72679687 12.734375 16.4453125 C13.16975586 17.07969238 13.60513672 17.71407227 14.05371094 18.36767578 C15 20 15 20 15 22 C17.64 22 20.28 22 23 22 C23 26.62 23 31.24 23 36 C21.865625 36.309375 20.73125 36.61875 19.5625 36.9375 C16.21224901 37.62924531 16.21224901 37.62924531 15 39 C14.71811684 43.63954054 14.7681793 48.2904171 14.75 52.9375 C14.729375 54.25169922 14.70875 55.56589844 14.6875 56.91992188 C14.68234375 58.17224609 14.6771875 59.42457031 14.671875 60.71484375 C14.6625293 61.87105225 14.65318359 63.02726074 14.64355469 64.21850586 C14.76118164 65.13639893 14.87880859 66.05429199 15 67 C18.43761116 69.29174077 19.92071615 69.29524047 23.98046875 69.4140625 C25.14384766 69.45273438 26.30722656 69.49140625 27.50585938 69.53125 C28.72080078 69.5621875 29.93574219 69.593125 31.1875 69.625 C33.02731445 69.68300781 33.02731445 69.68300781 34.90429688 69.7421875 C37.93594715 69.83655794 40.96795312 69.91937174 44 70 C44.99 74.62 45.98 79.24 47 84 C41.55569418 84.07437576 36.11168671 84.12870866 30.66699219 84.16479492 C28.81635381 84.17984471 26.96575089 84.20028933 25.11523438 84.22631836 C22.44912955 84.2628698 19.78349792 84.27976454 17.1171875 84.29296875 C16.29507782 84.30845261 15.47296814 84.32393646 14.62594604 84.33988953 C9.67822303 84.3413262 6.26628491 83.78698547 2 81 C-0.42669283 77.35996076 -0.26911387 74.7027485 -0.22705078 70.49926758 C-0.22734283 69.73805099 -0.22763489 68.97683441 -0.22793579 68.19255066 C-0.22654243 65.67642824 -0.21098107 63.16060194 -0.1953125 60.64453125 C-0.19158239 58.90004132 -0.18873541 57.15554929 -0.18673706 55.41105652 C-0.17910045 50.81936866 -0.15945171 46.22780731 -0.1373291 41.63616943 C-0.11687129 36.95082307 -0.10773548 32.26545627 -0.09765625 27.58007812 C-0.07620585 18.38666317 -0.04206955 9.1933421 0 0 Z " fill="#49E351" transform="translate(7,23)"/>
<path d="M0 0 C0.72110962 -0.00287018 1.44221924 -0.00574036 2.18518066 -0.00869751 C3.70825995 -0.01073702 5.2313655 -0.00521497 6.75439453 0.00732422 C9.08555678 0.02338107 11.41498542 0.0074734 13.74609375 -0.01171875 C15.22656633 -0.0097363 16.70703782 -0.00589257 18.1875 0 C18.8844397 -0.00607269 19.58137939 -0.01214539 20.29943848 -0.0184021 C23.06848928 0.02183527 25.13220122 0.11946156 27.53173828 1.56982422 C29.02129245 4.1345968 28.98230306 6.09688545 28.9921875 9.0546875 C28.99798828 10.71177734 28.99798828 10.71177734 29.00390625 12.40234375 C28.99230469 13.55605469 28.98070312 14.70976563 28.96875 15.8984375 C28.98035156 17.05214844 28.99195313 18.20585938 29.00390625 19.39453125 C29.00003906 20.49925781 28.99617188 21.60398437 28.9921875 22.7421875 C28.98880371 23.75474609 28.98541992 24.76730469 28.98193359 25.81054688 C28.59375 28.3984375 28.59375 28.3984375 27.53173828 30.22924805 C24.55579074 32.02463892 21.56008495 31.80628596 18.1875 31.76171875 C17.10583557 31.76246651 17.10583557 31.76246651 16.00231934 31.76322937 C14.47921998 31.76089112 12.95611661 31.7511771 11.43310547 31.73461914 C9.10218747 31.71102291 6.77241337 31.71405998 4.44140625 31.72070312 C2.96093068 31.71512621 1.48045993 31.70801624 0 31.69921875 C-0.6969397 31.70013016 -1.39387939 31.70104156 -2.11193848 31.70198059 C-5.76058425 31.64853826 -7.28437115 31.47969007 -10.40625 29.3984375 C-10.79443359 26.83227539 -10.79443359 26.83227539 -10.8046875 23.62109375 C-10.80855469 22.46802734 -10.81242187 21.31496094 -10.81640625 20.12695312 C-10.80480469 18.91716797 -10.79320312 17.70738281 -10.78125 16.4609375 C-10.79285156 15.25501953 -10.80445313 14.04910156 -10.81640625 12.80664062 C-10.81253906 11.65228516 -10.80867188 10.49792969 -10.8046875 9.30859375 C-10.80130371 8.24777588 -10.79791992 7.18695801 -10.79443359 6.09399414 C-10.40625 3.3984375 -10.40625 3.3984375 -9.34423828 1.55395508 C-6.36684527 -0.22130332 -3.36720861 -0.02933973 0 0 Z " fill="#43D148" transform="translate(73.40625,77.6015625)"/>
<path d="M0 0 C0.598125 0.78375 1.19625 1.5675 1.8125 2.375 C3.91085249 5.14574323 3.91085249 5.14574323 7 7 C9.82437444 7.24097687 12.55877174 7.3729132 15.38671875 7.4140625 C16.20372757 7.43342865 17.02073639 7.4527948 17.86250305 7.4727478 C20.47072934 7.53250352 23.07899986 7.57891258 25.6875 7.625 C27.4563994 7.6631835 29.22528028 7.70223546 30.99414062 7.7421875 C35.32927659 7.83820168 39.6644996 7.92224735 44 8 C44.99 12.62 45.98 17.24 47 22 C41.55569418 22.07437576 36.11168671 22.12870866 30.66699219 22.16479492 C28.81635381 22.17984471 26.96575089 22.20028933 25.11523438 22.22631836 C22.44912955 22.2628698 19.78349792 22.27976454 17.1171875 22.29296875 C16.29507782 22.30845261 15.47296814 22.32393646 14.62594604 22.33988953 C9.67822303 22.3413262 6.26628491 21.78698547 2 19 C-0.52775351 15.20836973 -0.22443035 12.19125969 -0.125 7.8125 C-0.11597656 7.06291016 -0.10695313 6.31332031 -0.09765625 5.54101562 C-0.07412578 3.69387346 -0.03825561 1.84689588 0 0 Z " fill="#38B93E" transform="translate(7,85)"/>
<path d="M0 0 C2.89640118 -0.08120751 5.79050912 -0.14059421 8.6875 -0.1875 C9.50412109 -0.21263672 10.32074219 -0.23777344 11.16210938 -0.26367188 C15.91363549 -0.32138272 19.21703481 -0.21877535 23 3 C25.44987178 6.62220306 25.65361721 10.25097307 25.578125 14.53515625 C24.67418154 18.38913141 22.4240613 19.65730335 19.1796875 21.68359375 C18.46039063 22.11800781 17.74109375 22.55242187 17 23 C15.81453512 23.93497963 14.64536246 24.89130354 13.5 25.875 C12.675 26.57625 11.85 27.2775 11 28 C10.96261719 27.31292969 10.92523438 26.62585938 10.88671875 25.91796875 C10.82097656 25.01691406 10.75523438 24.11585937 10.6875 23.1875 C10.62949219 22.29417969 10.57148437 21.40085937 10.51171875 20.48046875 C9.92399054 17.63155722 9.33876912 16.68911103 7 15 C3.38976901 14.26958147 3.38976901 14.26958147 0 14 C0 9.38 0 4.76 0 0 Z " fill="#4FF057" transform="translate(44,45)"/>
<path d="M0 0 C0.33 0 0.66 0 1 0 C1.226875 1.093125 1.45375 2.18625 1.6875 3.3125 C2.65071042 6.99641539 2.65071042 6.99641539 5.03125 8.71875 C9.05266283 10.45430712 12.48818321 10.32886492 16.8125 10.1875 C17.99489258 10.16719727 17.99489258 10.16719727 19.20117188 10.14648438 C21.13441169 10.11133456 23.06729682 10.05753361 25 10 C25.18957424 15.51345092 24.08401775 18.96362376 22 24 C19.43571485 24.13559675 16.87864784 24.23433188 14.3125 24.3125 C13.59126953 24.35439453 12.87003906 24.39628906 12.12695312 24.43945312 C7.90350688 24.53587884 6.46173019 24.37389777 3.04296875 21.60546875 C-0.40869687 17.20344012 -0.11961455 13.78770199 -0.0625 8.375 C-0.05798828 7.57320313 -0.05347656 6.77140625 -0.04882812 5.9453125 C-0.03703168 3.96350994 -0.01909605 1.98174567 0 0 Z " fill="#227BB0" transform="translate(30,59)"/>
<path d="M0 0 C1 1 1 1 1 7 C-8.9 7.33 -18.8 7.66 -29 8 C-25.27737765 4.27737765 -22.27450018 3.64024621 -17.3125 2.3125 C-16.53455078 2.08755859 -15.75660156 1.86261719 -14.95507812 1.63085938 C-9.82189436 0.22233773 -5.32291677 -0.31662692 0 0 Z " fill="#4DD352" transform="translate(94,69)"/>
<path d="M0 0 C1 1 1 1 1.125 3.5 C1 6 1 6 0 7 C-2.4375 7.1875 -2.4375 7.1875 -5 7 C-5.66 6.34 -6.32 5.68 -7 5 C-6.75 2.4375 -6.75 2.4375 -6 0 C-3.49749232 -1.25125384 -2.59701335 -0.83774624 0 0 Z " fill="#E4EFE5" transform="translate(95,90)"/>
<path d="M0 0 C0.99 0 1.98 0 3 0 C3 4.62 3 9.24 3 14 C2.01 14 1.02 14 0 14 C0 9.38 0 4.76 0 0 Z " fill="#45BE54" transform="translate(44,45)"/>
<path d="M0 0 C0.99 0.66 1.98 1.32 3 2 C3 2.66 3 3.32 3 4 C-0.3 4 -3.6 4 -7 4 C-4.73038808 1.73038808 -3.06630664 0.8974556 0 0 Z " fill="#33A639" transform="translate(51,103)"/>
</svg>
